<svg xmlns="http://www.w3.org/2000/svg" width="24" height="24" viewBox="0 0 24 24" fill="none">
  <path d="M12 24C18.6274 24 24 18.6274 24 12C24 5.37258 18.6274 0 12 0C5.37258 0 0 5.37258 0 12C0 18.6274 5.37258 24 12 24Z" fill="#0052FF"/>
  <path d="M12.4372 5.03638H11.5629V18.9636H12.4372V5.03638Z" fill="white"/>
  <path d="M14.9977 10.138C14.6436 9.85698 14.1622 9.70316 13.6809 9.70316C13.2706 9.70316 12.9165 9.78006 12.6204 9.91698C12.3244 10.0539 12.0864 10.2139 11.9065 10.4508C11.7265 10.6878 11.5885 10.9478 11.4946 11.2308C11.4006 11.5139 11.3346 11.7969 11.3346 12.08V12.08C11.3346 12.3361 11.3676 12.6192 11.4616 12.9022C11.5226 13.1852 11.6605 13.4682 11.8404 13.7052C12.0204 13.9422 12.2584 14.1022 12.5874 14.2391C12.8834 14.376 13.2706 14.4529 13.7519 14.4529C14.2332 14.4529 14.6776 14.2991 14.9977 14.018L14.9977 14.7111C14.9977 14.9481 14.9637 15.1581 14.9027 15.3181C14.8417 15.4781 14.7487 15.6151 14.6557 15.7291C14.5287 15.843 14.4017 15.93 14.2417 15.9839C14.0818 16.0378 13.8878 16.0648 13.6809 16.0648C13.4079 16.0648 13.1449 16.0109 12.9419 15.876C12.7229 15.7621 12.5679 15.5481 12.4849 15.2651L11.5886 15.584C11.5886 15.584 11.6165 15.6921 11.6715 15.8001C11.7265 15.9301 11.8085 16.087 11.9245 16.244C12.0404 16.428 12.1774 16.6119 12.3694 16.769C12.5614 16.9259 12.8004 17.0859 13.1119 17.1929C13.4079 17.2998 13.7739 17.3538 14.1982 17.3538C14.6226 17.3538 15.0139 17.2729 15.3429 17.1659C15.6719 17.032 15.9349 16.8719 16.1479 16.661C16.3609 16.45 16.5079 16.1939 16.6139 15.9301C16.7199 15.6381 16.7739 15.3461 16.7739 14.9751V9.80316H14.9977V10.138Z" fill="white"/>
  <path d="M8.96248 10.1501C8.60846 9.86892 8.12712 9.71511 7.64578 9.71511C7.23576 9.71511 6.88174 9.792 6.58573 9.92892C6.28972 10.0658 6.05171 10.2258 5.8717 10.4628C5.6917 10.6998 5.55369 10.9597 5.45969 11.2428C5.36568 11.5258 5.29968 11.8088 5.29968 12.0919V12.0919C5.29968 12.3479 5.33268 12.631 5.42668 12.914C5.48768 13.197 5.62569 13.48 5.8057 13.717C5.9857 13.954 6.22371 14.1139 6.55272 14.2509C6.84873 14.3878 7.23576 14.4647 7.71709 14.4647C8.19843 14.4647 8.64245 14.311 8.96248 14.0301L8.96248 14.7231C8.96248 14.9601 8.92848 15.1701 8.86748 15.3301C8.80647 15.4901 8.71347 15.6271 8.62047 15.7411C8.49346 15.855 8.36646 15.9419 8.20645 15.9959C8.04644 16.0498 7.85244 16.0768 7.64578 16.0768C7.37276 16.0768 7.10975 16.0229 6.90674 15.888C6.68774 15.7741 6.53273 15.5601 6.44973 15.2771L5.55369 15.596C5.55369 15.596 5.58169 15.7041 5.63669 15.8121C5.6917 15.9421 5.7737 16.099 5.8897 16.256C6.0057 16.44 6.14271 16.624 6.33472 16.781C6.52672 16.9379 6.76573 17.0979 7.07774 17.2049C7.37276 17.3118 7.73877 17.3658 8.16379 17.3658C8.58881 17.3658 8.98083 17.2849 9.30985 17.1779C9.63886 17.0439 9.90188 16.8839 10.1149 16.6729C10.3279 16.462 10.4749 16.206 10.5809 15.9421C10.6869 15.6501 10.7409 15.3581 10.7409 14.9871V9.81511H8.96478V10.1501H8.96248Z" fill="white"/>
</svg> 